<mxfile host="app.diagrams.net" modified="2023-06-11T18:20:33.682Z" agent="Mozilla/5.0 (Windows NT 10.0; Win64; x64; rv:109.0) Gecko/20100101 Firefox/113.0" etag="G3EY2zozpi1W5C9el3iY" version="21.3.8">
  <diagram name="Page-1" id="929967ad-93f9-6ef4-fab6-5d389245f69c">
    <mxGraphModel dx="1147" dy="603" grid="1" gridSize="10" guides="1" tooltips="1" connect="1" arrows="1" fold="1" page="1" pageScale="1.5" pageWidth="1169" pageHeight="826" background="none" math="0" shadow="0">
      <root>
        <mxCell id="0" style=";html=1;" />
        <mxCell id="1" style=";html=1;" parent="0" />
        <mxCell id="o2AJ-vpnt4ydMoMnxQxD-1" value="" style="edgeStyle=orthogonalEdgeStyle;rounded=0;orthogonalLoop=1;jettySize=auto;html=1;" edge="1" parent="1" source="o2AJ-vpnt4ydMoMnxQxD-2" target="o2AJ-vpnt4ydMoMnxQxD-4">
          <mxGeometry relative="1" as="geometry" />
        </mxCell>
        <mxCell id="o2AJ-vpnt4ydMoMnxQxD-68" style="edgeStyle=orthogonalEdgeStyle;rounded=0;orthogonalLoop=1;jettySize=auto;html=1;entryX=0.5;entryY=0;entryDx=0;entryDy=0;" edge="1" parent="1" source="o2AJ-vpnt4ydMoMnxQxD-2" target="o2AJ-vpnt4ydMoMnxQxD-69">
          <mxGeometry relative="1" as="geometry">
            <mxPoint x="1080" y="100" as="targetPoint" />
          </mxGeometry>
        </mxCell>
        <mxCell id="o2AJ-vpnt4ydMoMnxQxD-74" style="edgeStyle=orthogonalEdgeStyle;rounded=0;orthogonalLoop=1;jettySize=auto;html=1;" edge="1" parent="1" source="o2AJ-vpnt4ydMoMnxQxD-117" target="o2AJ-vpnt4ydMoMnxQxD-75">
          <mxGeometry relative="1" as="geometry">
            <mxPoint x="1340" y="60" as="targetPoint" />
          </mxGeometry>
        </mxCell>
        <mxCell id="o2AJ-vpnt4ydMoMnxQxD-2" value="Program start" style="rounded=1;whiteSpace=wrap;html=1;fontSize=12;glass=0;strokeWidth=1;shadow=0;" vertex="1" parent="1">
          <mxGeometry x="860" y="40" width="120" height="40" as="geometry" />
        </mxCell>
        <mxCell id="o2AJ-vpnt4ydMoMnxQxD-3" style="edgeStyle=orthogonalEdgeStyle;rounded=0;orthogonalLoop=1;jettySize=auto;html=1;entryX=0.5;entryY=0;entryDx=0;entryDy=0;" edge="1" parent="1" source="o2AJ-vpnt4ydMoMnxQxD-4" target="o2AJ-vpnt4ydMoMnxQxD-9">
          <mxGeometry relative="1" as="geometry" />
        </mxCell>
        <mxCell id="o2AJ-vpnt4ydMoMnxQxD-4" value="celler tjekkes" style="whiteSpace=wrap;html=1;rounded=1;glass=0;strokeWidth=1;shadow=0;" vertex="1" parent="1">
          <mxGeometry x="400" y="160" width="120" height="60" as="geometry" />
        </mxCell>
        <mxCell id="o2AJ-vpnt4ydMoMnxQxD-5" value="" style="edgeStyle=orthogonalEdgeStyle;rounded=0;orthogonalLoop=1;jettySize=auto;html=1;" edge="1" parent="1" source="o2AJ-vpnt4ydMoMnxQxD-9" target="o2AJ-vpnt4ydMoMnxQxD-11">
          <mxGeometry relative="1" as="geometry" />
        </mxCell>
        <mxCell id="o2AJ-vpnt4ydMoMnxQxD-6" style="edgeStyle=orthogonalEdgeStyle;rounded=0;orthogonalLoop=1;jettySize=auto;html=1;entryX=0.5;entryY=0;entryDx=0;entryDy=0;" edge="1" parent="1" source="o2AJ-vpnt4ydMoMnxQxD-9" target="o2AJ-vpnt4ydMoMnxQxD-13">
          <mxGeometry relative="1" as="geometry" />
        </mxCell>
        <mxCell id="o2AJ-vpnt4ydMoMnxQxD-7" style="edgeStyle=orthogonalEdgeStyle;rounded=0;orthogonalLoop=1;jettySize=auto;html=1;entryX=0;entryY=0.5;entryDx=0;entryDy=0;" edge="1" parent="1" source="o2AJ-vpnt4ydMoMnxQxD-9" target="o2AJ-vpnt4ydMoMnxQxD-15">
          <mxGeometry relative="1" as="geometry" />
        </mxCell>
        <mxCell id="o2AJ-vpnt4ydMoMnxQxD-8" style="edgeStyle=orthogonalEdgeStyle;rounded=0;orthogonalLoop=1;jettySize=auto;html=1;entryX=0.5;entryY=0;entryDx=0;entryDy=0;" edge="1" parent="1" source="o2AJ-vpnt4ydMoMnxQxD-9" target="o2AJ-vpnt4ydMoMnxQxD-30">
          <mxGeometry relative="1" as="geometry">
            <mxPoint x="460" y="490" as="targetPoint" />
          </mxGeometry>
        </mxCell>
        <mxCell id="o2AJ-vpnt4ydMoMnxQxD-9" value="Jord" style="rounded=0;whiteSpace=wrap;html=1;" vertex="1" parent="1">
          <mxGeometry x="415" y="280" width="90" height="50" as="geometry" />
        </mxCell>
        <mxCell id="o2AJ-vpnt4ydMoMnxQxD-10" style="edgeStyle=orthogonalEdgeStyle;rounded=0;orthogonalLoop=1;jettySize=auto;html=1;entryX=0;entryY=0.5;entryDx=0;entryDy=0;" edge="1" parent="1" source="o2AJ-vpnt4ydMoMnxQxD-11" target="o2AJ-vpnt4ydMoMnxQxD-21">
          <mxGeometry relative="1" as="geometry" />
        </mxCell>
        <mxCell id="o2AJ-vpnt4ydMoMnxQxD-11" value="3 græs naboer" style="whiteSpace=wrap;html=1;rounded=0;" vertex="1" parent="1">
          <mxGeometry x="530" y="172.5" width="100" height="30" as="geometry" />
        </mxCell>
        <mxCell id="o2AJ-vpnt4ydMoMnxQxD-12" value="" style="edgeStyle=orthogonalEdgeStyle;rounded=0;orthogonalLoop=1;jettySize=auto;html=1;" edge="1" parent="1" source="o2AJ-vpnt4ydMoMnxQxD-13" target="o2AJ-vpnt4ydMoMnxQxD-18">
          <mxGeometry relative="1" as="geometry" />
        </mxCell>
        <mxCell id="o2AJ-vpnt4ydMoMnxQxD-13" value="3 vand naboer" style="whiteSpace=wrap;html=1;rounded=0;" vertex="1" parent="1">
          <mxGeometry x="530" y="410" width="100" height="30" as="geometry" />
        </mxCell>
        <mxCell id="o2AJ-vpnt4ydMoMnxQxD-14" value="" style="edgeStyle=orthogonalEdgeStyle;rounded=0;orthogonalLoop=1;jettySize=auto;html=1;" edge="1" parent="1" source="o2AJ-vpnt4ydMoMnxQxD-15" target="o2AJ-vpnt4ydMoMnxQxD-24">
          <mxGeometry relative="1" as="geometry" />
        </mxCell>
        <mxCell id="o2AJ-vpnt4ydMoMnxQxD-15" value="3 sump naboer" style="whiteSpace=wrap;html=1;rounded=0;" vertex="1" parent="1">
          <mxGeometry x="630" y="290" width="100" height="30" as="geometry" />
        </mxCell>
        <mxCell id="o2AJ-vpnt4ydMoMnxQxD-16" style="edgeStyle=orthogonalEdgeStyle;rounded=0;orthogonalLoop=1;jettySize=auto;html=1;entryX=0.5;entryY=1;entryDx=0;entryDy=0;" edge="1" parent="1" source="o2AJ-vpnt4ydMoMnxQxD-18" target="o2AJ-vpnt4ydMoMnxQxD-25">
          <mxGeometry relative="1" as="geometry" />
        </mxCell>
        <mxCell id="o2AJ-vpnt4ydMoMnxQxD-17" style="edgeStyle=orthogonalEdgeStyle;rounded=0;orthogonalLoop=1;jettySize=auto;html=1;entryX=0.5;entryY=0;entryDx=0;entryDy=0;" edge="1" parent="1" source="o2AJ-vpnt4ydMoMnxQxD-18" target="o2AJ-vpnt4ydMoMnxQxD-26">
          <mxGeometry relative="1" as="geometry" />
        </mxCell>
        <mxCell id="o2AJ-vpnt4ydMoMnxQxD-18" value="50%" style="rhombus;whiteSpace=wrap;html=1;rounded=0;" vertex="1" parent="1">
          <mxGeometry x="690" y="392.5" width="60" height="65" as="geometry" />
        </mxCell>
        <mxCell id="o2AJ-vpnt4ydMoMnxQxD-19" style="edgeStyle=orthogonalEdgeStyle;rounded=0;orthogonalLoop=1;jettySize=auto;html=1;entryX=0.5;entryY=1;entryDx=0;entryDy=0;" edge="1" parent="1" source="o2AJ-vpnt4ydMoMnxQxD-21" target="o2AJ-vpnt4ydMoMnxQxD-22">
          <mxGeometry relative="1" as="geometry">
            <mxPoint x="820" y="150" as="targetPoint" />
          </mxGeometry>
        </mxCell>
        <mxCell id="o2AJ-vpnt4ydMoMnxQxD-20" style="edgeStyle=orthogonalEdgeStyle;rounded=0;orthogonalLoop=1;jettySize=auto;html=1;entryX=0.5;entryY=0;entryDx=0;entryDy=0;" edge="1" parent="1" source="o2AJ-vpnt4ydMoMnxQxD-21" target="o2AJ-vpnt4ydMoMnxQxD-23">
          <mxGeometry relative="1" as="geometry" />
        </mxCell>
        <mxCell id="o2AJ-vpnt4ydMoMnxQxD-21" value="50%" style="rhombus;whiteSpace=wrap;html=1;rounded=0;" vertex="1" parent="1">
          <mxGeometry x="690" y="155" width="60" height="65" as="geometry" />
        </mxCell>
        <mxCell id="o2AJ-vpnt4ydMoMnxQxD-67" style="edgeStyle=orthogonalEdgeStyle;rounded=0;orthogonalLoop=1;jettySize=auto;html=1;exitX=1;exitY=0.5;exitDx=0;exitDy=0;endArrow=none;endFill=0;" edge="1" parent="1" source="o2AJ-vpnt4ydMoMnxQxD-22">
          <mxGeometry relative="1" as="geometry">
            <mxPoint x="910" y="144.88888888888886" as="targetPoint" />
          </mxGeometry>
        </mxCell>
        <mxCell id="o2AJ-vpnt4ydMoMnxQxD-22" value="bliver græs" style="whiteSpace=wrap;html=1;rounded=0;" vertex="1" parent="1">
          <mxGeometry x="790" y="130" width="100" height="30" as="geometry" />
        </mxCell>
        <mxCell id="o2AJ-vpnt4ydMoMnxQxD-66" style="edgeStyle=orthogonalEdgeStyle;rounded=0;orthogonalLoop=1;jettySize=auto;html=1;exitX=1;exitY=0.5;exitDx=0;exitDy=0;endArrow=none;endFill=0;" edge="1" parent="1" source="o2AJ-vpnt4ydMoMnxQxD-23">
          <mxGeometry relative="1" as="geometry">
            <mxPoint x="910" y="229.88888888888886" as="targetPoint" />
          </mxGeometry>
        </mxCell>
        <mxCell id="o2AJ-vpnt4ydMoMnxQxD-23" value="bliver groende græs" style="whiteSpace=wrap;html=1;rounded=0;" vertex="1" parent="1">
          <mxGeometry x="790" y="210" width="100" height="40" as="geometry" />
        </mxCell>
        <mxCell id="o2AJ-vpnt4ydMoMnxQxD-65" style="edgeStyle=orthogonalEdgeStyle;rounded=0;orthogonalLoop=1;jettySize=auto;html=1;exitX=1;exitY=0.5;exitDx=0;exitDy=0;endArrow=none;endFill=0;" edge="1" parent="1" source="o2AJ-vpnt4ydMoMnxQxD-24">
          <mxGeometry relative="1" as="geometry">
            <mxPoint x="910" y="304.8888888888889" as="targetPoint" />
          </mxGeometry>
        </mxCell>
        <mxCell id="o2AJ-vpnt4ydMoMnxQxD-24" value="bliver til sump" style="whiteSpace=wrap;html=1;rounded=0;" vertex="1" parent="1">
          <mxGeometry x="790" y="287.5" width="100" height="35" as="geometry" />
        </mxCell>
        <mxCell id="o2AJ-vpnt4ydMoMnxQxD-64" style="edgeStyle=orthogonalEdgeStyle;rounded=0;orthogonalLoop=1;jettySize=auto;html=1;exitX=1;exitY=0.5;exitDx=0;exitDy=0;endArrow=none;endFill=0;" edge="1" parent="1" source="o2AJ-vpnt4ydMoMnxQxD-25">
          <mxGeometry relative="1" as="geometry">
            <mxPoint x="910" y="384.8888888888889" as="targetPoint" />
          </mxGeometry>
        </mxCell>
        <mxCell id="o2AJ-vpnt4ydMoMnxQxD-25" value="bliver vand" style="whiteSpace=wrap;html=1;rounded=0;" vertex="1" parent="1">
          <mxGeometry x="790" y="370" width="100" height="30" as="geometry" />
        </mxCell>
        <mxCell id="o2AJ-vpnt4ydMoMnxQxD-63" style="edgeStyle=orthogonalEdgeStyle;rounded=0;orthogonalLoop=1;jettySize=auto;html=1;endArrow=none;endFill=0;" edge="1" parent="1" source="o2AJ-vpnt4ydMoMnxQxD-26">
          <mxGeometry relative="1" as="geometry">
            <mxPoint x="910" y="465" as="targetPoint" />
          </mxGeometry>
        </mxCell>
        <mxCell id="o2AJ-vpnt4ydMoMnxQxD-26" value="bliver jord" style="whiteSpace=wrap;html=1;rounded=0;" vertex="1" parent="1">
          <mxGeometry x="790" y="450" width="100" height="30" as="geometry" />
        </mxCell>
        <mxCell id="o2AJ-vpnt4ydMoMnxQxD-27" style="edgeStyle=orthogonalEdgeStyle;rounded=0;orthogonalLoop=1;jettySize=auto;html=1;entryX=0.5;entryY=1;entryDx=0;entryDy=0;" edge="1" parent="1" source="o2AJ-vpnt4ydMoMnxQxD-30" target="o2AJ-vpnt4ydMoMnxQxD-32">
          <mxGeometry relative="1" as="geometry" />
        </mxCell>
        <mxCell id="o2AJ-vpnt4ydMoMnxQxD-28" style="edgeStyle=orthogonalEdgeStyle;rounded=0;orthogonalLoop=1;jettySize=auto;html=1;entryX=0.5;entryY=0;entryDx=0;entryDy=0;" edge="1" parent="1" source="o2AJ-vpnt4ydMoMnxQxD-30" target="o2AJ-vpnt4ydMoMnxQxD-34">
          <mxGeometry relative="1" as="geometry" />
        </mxCell>
        <mxCell id="o2AJ-vpnt4ydMoMnxQxD-29" style="edgeStyle=orthogonalEdgeStyle;rounded=0;orthogonalLoop=1;jettySize=auto;html=1;entryX=0.5;entryY=0;entryDx=0;entryDy=0;" edge="1" parent="1" source="o2AJ-vpnt4ydMoMnxQxD-30" target="o2AJ-vpnt4ydMoMnxQxD-40">
          <mxGeometry relative="1" as="geometry">
            <mxPoint x="460" y="690" as="targetPoint" />
          </mxGeometry>
        </mxCell>
        <mxCell id="o2AJ-vpnt4ydMoMnxQxD-30" value="Vand" style="rounded=0;whiteSpace=wrap;html=1;" vertex="1" parent="1">
          <mxGeometry x="415" y="530" width="90" height="50" as="geometry" />
        </mxCell>
        <mxCell id="o2AJ-vpnt4ydMoMnxQxD-31" value="" style="edgeStyle=orthogonalEdgeStyle;rounded=0;orthogonalLoop=1;jettySize=auto;html=1;entryX=0;entryY=0.5;entryDx=0;entryDy=0;" edge="1" parent="1" source="o2AJ-vpnt4ydMoMnxQxD-32" target="o2AJ-vpnt4ydMoMnxQxD-35">
          <mxGeometry relative="1" as="geometry">
            <mxPoint x="730" y="515" as="targetPoint" />
          </mxGeometry>
        </mxCell>
        <mxCell id="o2AJ-vpnt4ydMoMnxQxD-32" value="under 2 vand naboer" style="whiteSpace=wrap;html=1;rounded=0;" vertex="1" parent="1">
          <mxGeometry x="530" y="500" width="120" height="30" as="geometry" />
        </mxCell>
        <mxCell id="o2AJ-vpnt4ydMoMnxQxD-33" style="edgeStyle=orthogonalEdgeStyle;rounded=0;orthogonalLoop=1;jettySize=auto;html=1;entryX=0;entryY=0.5;entryDx=0;entryDy=0;" edge="1" parent="1" source="o2AJ-vpnt4ydMoMnxQxD-34" target="o2AJ-vpnt4ydMoMnxQxD-36">
          <mxGeometry relative="1" as="geometry" />
        </mxCell>
        <mxCell id="o2AJ-vpnt4ydMoMnxQxD-34" value="over 3 vand naboer" style="whiteSpace=wrap;html=1;rounded=0;" vertex="1" parent="1">
          <mxGeometry x="530" y="580" width="120" height="30" as="geometry" />
        </mxCell>
        <mxCell id="o2AJ-vpnt4ydMoMnxQxD-62" style="edgeStyle=orthogonalEdgeStyle;rounded=0;orthogonalLoop=1;jettySize=auto;html=1;exitX=1;exitY=0.5;exitDx=0;exitDy=0;endArrow=none;endFill=0;" edge="1" parent="1" source="o2AJ-vpnt4ydMoMnxQxD-35">
          <mxGeometry relative="1" as="geometry">
            <mxPoint x="910" y="514.8888888888889" as="targetPoint" />
          </mxGeometry>
        </mxCell>
        <mxCell id="o2AJ-vpnt4ydMoMnxQxD-35" value="bliver jord" style="whiteSpace=wrap;html=1;rounded=0;" vertex="1" parent="1">
          <mxGeometry x="790" y="500" width="100" height="30" as="geometry" />
        </mxCell>
        <mxCell id="o2AJ-vpnt4ydMoMnxQxD-61" style="edgeStyle=orthogonalEdgeStyle;rounded=0;orthogonalLoop=1;jettySize=auto;html=1;exitX=1;exitY=0.5;exitDx=0;exitDy=0;endArrow=none;endFill=0;" edge="1" parent="1" source="o2AJ-vpnt4ydMoMnxQxD-36">
          <mxGeometry relative="1" as="geometry">
            <mxPoint x="910" y="594.8888888888889" as="targetPoint" />
          </mxGeometry>
        </mxCell>
        <mxCell id="o2AJ-vpnt4ydMoMnxQxD-36" value="bliver vand" style="whiteSpace=wrap;html=1;rounded=0;" vertex="1" parent="1">
          <mxGeometry x="790" y="580" width="100" height="30" as="geometry" />
        </mxCell>
        <mxCell id="o2AJ-vpnt4ydMoMnxQxD-37" style="edgeStyle=orthogonalEdgeStyle;rounded=0;orthogonalLoop=1;jettySize=auto;html=1;entryX=0.5;entryY=1;entryDx=0;entryDy=0;" edge="1" parent="1" source="o2AJ-vpnt4ydMoMnxQxD-40" target="o2AJ-vpnt4ydMoMnxQxD-45">
          <mxGeometry relative="1" as="geometry" />
        </mxCell>
        <mxCell id="o2AJ-vpnt4ydMoMnxQxD-38" style="edgeStyle=orthogonalEdgeStyle;rounded=0;orthogonalLoop=1;jettySize=auto;html=1;entryX=0.5;entryY=0;entryDx=0;entryDy=0;" edge="1" parent="1" source="o2AJ-vpnt4ydMoMnxQxD-40" target="o2AJ-vpnt4ydMoMnxQxD-47">
          <mxGeometry relative="1" as="geometry" />
        </mxCell>
        <mxCell id="o2AJ-vpnt4ydMoMnxQxD-39" style="edgeStyle=orthogonalEdgeStyle;rounded=0;orthogonalLoop=1;jettySize=auto;html=1;entryX=0.5;entryY=0;entryDx=0;entryDy=0;" edge="1" parent="1" source="o2AJ-vpnt4ydMoMnxQxD-40" target="o2AJ-vpnt4ydMoMnxQxD-43">
          <mxGeometry relative="1" as="geometry" />
        </mxCell>
        <mxCell id="o2AJ-vpnt4ydMoMnxQxD-40" value="sump " style="rounded=0;whiteSpace=wrap;html=1;" vertex="1" parent="1">
          <mxGeometry x="415" y="700" width="90" height="50" as="geometry" />
        </mxCell>
        <mxCell id="o2AJ-vpnt4ydMoMnxQxD-41" style="edgeStyle=orthogonalEdgeStyle;rounded=0;orthogonalLoop=1;jettySize=auto;html=1;entryX=0.5;entryY=1;entryDx=0;entryDy=0;" edge="1" parent="1" source="o2AJ-vpnt4ydMoMnxQxD-43" target="o2AJ-vpnt4ydMoMnxQxD-51">
          <mxGeometry relative="1" as="geometry" />
        </mxCell>
        <mxCell id="o2AJ-vpnt4ydMoMnxQxD-42" style="edgeStyle=orthogonalEdgeStyle;rounded=0;orthogonalLoop=1;jettySize=auto;html=1;entryX=0.5;entryY=0;entryDx=0;entryDy=0;" edge="1" parent="1" source="o2AJ-vpnt4ydMoMnxQxD-43" target="o2AJ-vpnt4ydMoMnxQxD-53">
          <mxGeometry relative="1" as="geometry" />
        </mxCell>
        <mxCell id="o2AJ-vpnt4ydMoMnxQxD-43" value="græs" style="rounded=0;whiteSpace=wrap;html=1;" vertex="1" parent="1">
          <mxGeometry x="415" y="860" width="90" height="50" as="geometry" />
        </mxCell>
        <mxCell id="o2AJ-vpnt4ydMoMnxQxD-44" style="edgeStyle=orthogonalEdgeStyle;rounded=0;orthogonalLoop=1;jettySize=auto;html=1;" edge="1" parent="1" source="o2AJ-vpnt4ydMoMnxQxD-45">
          <mxGeometry relative="1" as="geometry">
            <mxPoint x="790" y="675" as="targetPoint" />
          </mxGeometry>
        </mxCell>
        <mxCell id="o2AJ-vpnt4ydMoMnxQxD-45" value="under 4 sump naboer" style="whiteSpace=wrap;html=1;rounded=0;" vertex="1" parent="1">
          <mxGeometry x="520" y="660" width="130" height="30" as="geometry" />
        </mxCell>
        <mxCell id="o2AJ-vpnt4ydMoMnxQxD-46" style="edgeStyle=orthogonalEdgeStyle;rounded=0;orthogonalLoop=1;jettySize=auto;html=1;" edge="1" parent="1" source="o2AJ-vpnt4ydMoMnxQxD-47" target="o2AJ-vpnt4ydMoMnxQxD-49">
          <mxGeometry relative="1" as="geometry" />
        </mxCell>
        <mxCell id="o2AJ-vpnt4ydMoMnxQxD-47" value="over 2 sump naboer" style="whiteSpace=wrap;html=1;rounded=0;" vertex="1" parent="1">
          <mxGeometry x="520" y="760" width="130" height="30" as="geometry" />
        </mxCell>
        <mxCell id="o2AJ-vpnt4ydMoMnxQxD-60" style="edgeStyle=orthogonalEdgeStyle;rounded=0;orthogonalLoop=1;jettySize=auto;html=1;exitX=1;exitY=0.5;exitDx=0;exitDy=0;endArrow=none;endFill=0;" edge="1" parent="1" source="o2AJ-vpnt4ydMoMnxQxD-48">
          <mxGeometry relative="1" as="geometry">
            <mxPoint x="910" y="674.8888888888889" as="targetPoint" />
          </mxGeometry>
        </mxCell>
        <mxCell id="o2AJ-vpnt4ydMoMnxQxD-48" value="forbliver sump" style="whiteSpace=wrap;html=1;rounded=0;" vertex="1" parent="1">
          <mxGeometry x="790" y="660" width="100" height="30" as="geometry" />
        </mxCell>
        <mxCell id="o2AJ-vpnt4ydMoMnxQxD-49" value="forbliver sump" style="whiteSpace=wrap;html=1;rounded=0;" vertex="1" parent="1">
          <mxGeometry x="790" y="760" width="100" height="30" as="geometry" />
        </mxCell>
        <mxCell id="o2AJ-vpnt4ydMoMnxQxD-50" style="edgeStyle=orthogonalEdgeStyle;rounded=0;orthogonalLoop=1;jettySize=auto;html=1;" edge="1" parent="1" source="o2AJ-vpnt4ydMoMnxQxD-51">
          <mxGeometry relative="1" as="geometry">
            <mxPoint x="790" y="835" as="targetPoint" />
          </mxGeometry>
        </mxCell>
        <mxCell id="o2AJ-vpnt4ydMoMnxQxD-51" value="under 2 græs naboer" style="whiteSpace=wrap;html=1;rounded=0;" vertex="1" parent="1">
          <mxGeometry x="520" y="820" width="130" height="30" as="geometry" />
        </mxCell>
        <mxCell id="o2AJ-vpnt4ydMoMnxQxD-52" style="edgeStyle=orthogonalEdgeStyle;rounded=0;orthogonalLoop=1;jettySize=auto;html=1;" edge="1" parent="1" source="o2AJ-vpnt4ydMoMnxQxD-53">
          <mxGeometry relative="1" as="geometry">
            <mxPoint x="790" y="935" as="targetPoint" />
          </mxGeometry>
        </mxCell>
        <mxCell id="o2AJ-vpnt4ydMoMnxQxD-53" value="over 3 græs naboer" style="whiteSpace=wrap;html=1;rounded=0;" vertex="1" parent="1">
          <mxGeometry x="520" y="920" width="130" height="30" as="geometry" />
        </mxCell>
        <mxCell id="o2AJ-vpnt4ydMoMnxQxD-57" style="edgeStyle=orthogonalEdgeStyle;rounded=0;orthogonalLoop=1;jettySize=auto;html=1;endArrow=none;endFill=0;" edge="1" parent="1" source="o2AJ-vpnt4ydMoMnxQxD-54">
          <mxGeometry relative="1" as="geometry">
            <mxPoint x="910" y="835" as="targetPoint" />
          </mxGeometry>
        </mxCell>
        <mxCell id="o2AJ-vpnt4ydMoMnxQxD-54" value="bliver jord" style="whiteSpace=wrap;html=1;rounded=0;" vertex="1" parent="1">
          <mxGeometry x="790" y="820" width="100" height="30" as="geometry" />
        </mxCell>
        <mxCell id="o2AJ-vpnt4ydMoMnxQxD-56" style="edgeStyle=orthogonalEdgeStyle;rounded=0;orthogonalLoop=1;jettySize=auto;html=1;entryX=0.5;entryY=0;entryDx=0;entryDy=0;" edge="1" parent="1" source="o2AJ-vpnt4ydMoMnxQxD-70" target="o2AJ-vpnt4ydMoMnxQxD-4">
          <mxGeometry relative="1" as="geometry">
            <mxPoint x="450" y="100" as="targetPoint" />
            <Array as="points" />
          </mxGeometry>
        </mxCell>
        <mxCell id="o2AJ-vpnt4ydMoMnxQxD-55" value="bliver græs" style="whiteSpace=wrap;html=1;rounded=0;" vertex="1" parent="1">
          <mxGeometry x="790" y="920" width="100" height="30" as="geometry" />
        </mxCell>
        <mxCell id="o2AJ-vpnt4ydMoMnxQxD-59" style="edgeStyle=orthogonalEdgeStyle;rounded=0;orthogonalLoop=1;jettySize=auto;html=1;endArrow=none;endFill=0;exitX=1;exitY=0.5;exitDx=0;exitDy=0;" edge="1" parent="1" source="o2AJ-vpnt4ydMoMnxQxD-49">
          <mxGeometry relative="1" as="geometry">
            <mxPoint x="910" y="775" as="targetPoint" />
            <mxPoint x="900" y="845" as="sourcePoint" />
            <Array as="points">
              <mxPoint x="900" y="775" />
              <mxPoint x="900" y="775" />
            </Array>
          </mxGeometry>
        </mxCell>
        <mxCell id="o2AJ-vpnt4ydMoMnxQxD-79" value="" style="edgeStyle=orthogonalEdgeStyle;rounded=0;orthogonalLoop=1;jettySize=auto;html=1;entryX=0.5;entryY=0;entryDx=0;entryDy=0;" edge="1" parent="1" source="o2AJ-vpnt4ydMoMnxQxD-69" target="o2AJ-vpnt4ydMoMnxQxD-82">
          <mxGeometry relative="1" as="geometry">
            <mxPoint x="1200.04" y="290.0400000000002" as="targetPoint" />
          </mxGeometry>
        </mxCell>
        <mxCell id="o2AJ-vpnt4ydMoMnxQxD-91" style="edgeStyle=orthogonalEdgeStyle;rounded=0;orthogonalLoop=1;jettySize=auto;html=1;entryX=0;entryY=0.5;entryDx=0;entryDy=0;" edge="1" parent="1" source="o2AJ-vpnt4ydMoMnxQxD-69" target="o2AJ-vpnt4ydMoMnxQxD-86">
          <mxGeometry relative="1" as="geometry" />
        </mxCell>
        <mxCell id="o2AJ-vpnt4ydMoMnxQxD-92" style="edgeStyle=orthogonalEdgeStyle;rounded=0;orthogonalLoop=1;jettySize=auto;html=1;entryX=0;entryY=0.5;entryDx=0;entryDy=0;" edge="1" parent="1" source="o2AJ-vpnt4ydMoMnxQxD-69" target="o2AJ-vpnt4ydMoMnxQxD-94">
          <mxGeometry relative="1" as="geometry">
            <mxPoint x="1100" y="600" as="targetPoint" />
          </mxGeometry>
        </mxCell>
        <mxCell id="o2AJ-vpnt4ydMoMnxQxD-106" style="edgeStyle=orthogonalEdgeStyle;rounded=0;orthogonalLoop=1;jettySize=auto;html=1;" edge="1" parent="1" source="o2AJ-vpnt4ydMoMnxQxD-69" target="o2AJ-vpnt4ydMoMnxQxD-107">
          <mxGeometry relative="1" as="geometry">
            <mxPoint x="1100" y="710" as="targetPoint" />
            <Array as="points">
              <mxPoint x="1100" y="765" />
            </Array>
          </mxGeometry>
        </mxCell>
        <mxCell id="o2AJ-vpnt4ydMoMnxQxD-69" value="Hunter spawnes" style="rounded=1;whiteSpace=wrap;html=1;" vertex="1" parent="1">
          <mxGeometry x="1040" y="160" width="120" height="60" as="geometry" />
        </mxCell>
        <mxCell id="o2AJ-vpnt4ydMoMnxQxD-72" value="" style="edgeStyle=orthogonalEdgeStyle;rounded=0;orthogonalLoop=1;jettySize=auto;html=1;" edge="1" parent="1" source="o2AJ-vpnt4ydMoMnxQxD-70">
          <mxGeometry relative="1" as="geometry">
            <mxPoint x="460" y="160" as="targetPoint" />
            <mxPoint x="890" y="935" as="sourcePoint" />
            <Array as="points">
              <mxPoint x="460" y="100" />
              <mxPoint x="460" y="120" />
            </Array>
          </mxGeometry>
        </mxCell>
        <mxCell id="o2AJ-vpnt4ydMoMnxQxD-73" value="" style="edgeStyle=orthogonalEdgeStyle;rounded=0;orthogonalLoop=1;jettySize=auto;html=1;entryX=0;entryY=0.5;entryDx=0;entryDy=0;endArrow=none;endFill=0;" edge="1" parent="1" source="o2AJ-vpnt4ydMoMnxQxD-55" target="o2AJ-vpnt4ydMoMnxQxD-70">
          <mxGeometry relative="1" as="geometry">
            <mxPoint x="730" y="100" as="targetPoint" />
            <mxPoint x="890" y="935" as="sourcePoint" />
            <Array as="points">
              <mxPoint x="911" y="935" />
              <mxPoint x="911" y="100" />
            </Array>
          </mxGeometry>
        </mxCell>
        <mxCell id="o2AJ-vpnt4ydMoMnxQxD-70" value="&amp;nbsp;&amp;nbsp;&amp;nbsp;&amp;nbsp;&amp;nbsp;&amp;nbsp;&amp;nbsp;&amp;nbsp;&amp;nbsp;&amp;nbsp; vent på counter" style="triangle;whiteSpace=wrap;html=1;direction=west;" vertex="1" parent="1">
          <mxGeometry x="600" y="70" width="130" height="60" as="geometry" />
        </mxCell>
        <mxCell id="o2AJ-vpnt4ydMoMnxQxD-81" style="edgeStyle=orthogonalEdgeStyle;rounded=0;orthogonalLoop=1;jettySize=auto;html=1;entryX=0.5;entryY=0;entryDx=0;entryDy=0;" edge="1" parent="1" source="o2AJ-vpnt4ydMoMnxQxD-75" target="o2AJ-vpnt4ydMoMnxQxD-82">
          <mxGeometry relative="1" as="geometry">
            <mxPoint x="1200" y="290" as="targetPoint" />
          </mxGeometry>
        </mxCell>
        <mxCell id="o2AJ-vpnt4ydMoMnxQxD-90" style="edgeStyle=orthogonalEdgeStyle;rounded=0;orthogonalLoop=1;jettySize=auto;html=1;entryX=1;entryY=0.5;entryDx=0;entryDy=0;" edge="1" parent="1" source="o2AJ-vpnt4ydMoMnxQxD-75" target="o2AJ-vpnt4ydMoMnxQxD-86">
          <mxGeometry relative="1" as="geometry" />
        </mxCell>
        <mxCell id="o2AJ-vpnt4ydMoMnxQxD-95" style="edgeStyle=orthogonalEdgeStyle;rounded=0;orthogonalLoop=1;jettySize=auto;html=1;entryX=1;entryY=0.5;entryDx=0;entryDy=0;" edge="1" parent="1" source="o2AJ-vpnt4ydMoMnxQxD-75" target="o2AJ-vpnt4ydMoMnxQxD-94">
          <mxGeometry relative="1" as="geometry" />
        </mxCell>
        <mxCell id="o2AJ-vpnt4ydMoMnxQxD-108" style="edgeStyle=orthogonalEdgeStyle;rounded=0;orthogonalLoop=1;jettySize=auto;html=1;entryX=1;entryY=0.5;entryDx=0;entryDy=0;" edge="1" parent="1" source="o2AJ-vpnt4ydMoMnxQxD-75" target="o2AJ-vpnt4ydMoMnxQxD-107">
          <mxGeometry relative="1" as="geometry" />
        </mxCell>
        <mxCell id="o2AJ-vpnt4ydMoMnxQxD-75" value="Prey spawnes" style="rounded=1;whiteSpace=wrap;html=1;" vertex="1" parent="1">
          <mxGeometry x="1240" y="160" width="120" height="60" as="geometry" />
        </mxCell>
        <mxCell id="o2AJ-vpnt4ydMoMnxQxD-84" value="" style="edgeStyle=orthogonalEdgeStyle;rounded=0;orthogonalLoop=1;jettySize=auto;html=1;" edge="1" parent="1" source="o2AJ-vpnt4ydMoMnxQxD-82" target="o2AJ-vpnt4ydMoMnxQxD-83">
          <mxGeometry relative="1" as="geometry" />
        </mxCell>
        <mxCell id="o2AJ-vpnt4ydMoMnxQxD-87" value="" style="edgeStyle=orthogonalEdgeStyle;rounded=0;orthogonalLoop=1;jettySize=auto;html=1;endArrow=none;endFill=0;" edge="1" parent="1" source="o2AJ-vpnt4ydMoMnxQxD-82" target="o2AJ-vpnt4ydMoMnxQxD-86">
          <mxGeometry relative="1" as="geometry" />
        </mxCell>
        <mxCell id="o2AJ-vpnt4ydMoMnxQxD-82" value="timer&amp;lt;500" style="rhombus;whiteSpace=wrap;html=1;" vertex="1" parent="1">
          <mxGeometry x="1160" y="260" width="80" height="80" as="geometry" />
        </mxCell>
        <mxCell id="o2AJ-vpnt4ydMoMnxQxD-83" value="wander " style="rounded=1;whiteSpace=wrap;html=1;" vertex="1" parent="1">
          <mxGeometry x="1400" y="270" width="120" height="60" as="geometry" />
        </mxCell>
        <mxCell id="o2AJ-vpnt4ydMoMnxQxD-88" style="edgeStyle=orthogonalEdgeStyle;rounded=0;orthogonalLoop=1;jettySize=auto;html=1;" edge="1" parent="1" source="o2AJ-vpnt4ydMoMnxQxD-86" target="o2AJ-vpnt4ydMoMnxQxD-89">
          <mxGeometry relative="1" as="geometry">
            <mxPoint x="1400" y="380" as="targetPoint" />
            <Array as="points">
              <mxPoint x="1200" y="380" />
              <mxPoint x="1310" y="380" />
            </Array>
          </mxGeometry>
        </mxCell>
        <mxCell id="o2AJ-vpnt4ydMoMnxQxD-86" value="hunger &amp;gt; 0" style="rhombus;whiteSpace=wrap;html=1;" vertex="1" parent="1">
          <mxGeometry x="1160" y="392.5" width="80" height="80" as="geometry" />
        </mxCell>
        <mxCell id="o2AJ-vpnt4ydMoMnxQxD-89" value="minus hunger" style="rounded=1;whiteSpace=wrap;html=1;" vertex="1" parent="1">
          <mxGeometry x="1400" y="350" width="120" height="60" as="geometry" />
        </mxCell>
        <mxCell id="o2AJ-vpnt4ydMoMnxQxD-96" style="edgeStyle=orthogonalEdgeStyle;rounded=0;orthogonalLoop=1;jettySize=auto;html=1;entryX=0;entryY=0.5;entryDx=0;entryDy=0;" edge="1" parent="1" source="o2AJ-vpnt4ydMoMnxQxD-94" target="o2AJ-vpnt4ydMoMnxQxD-97">
          <mxGeometry relative="1" as="geometry">
            <mxPoint x="1410" y="480" as="targetPoint" />
            <Array as="points">
              <mxPoint x="1200" y="480" />
            </Array>
          </mxGeometry>
        </mxCell>
        <mxCell id="o2AJ-vpnt4ydMoMnxQxD-101" style="edgeStyle=orthogonalEdgeStyle;rounded=0;orthogonalLoop=1;jettySize=auto;html=1;" edge="1" parent="1" source="o2AJ-vpnt4ydMoMnxQxD-94" target="o2AJ-vpnt4ydMoMnxQxD-102">
          <mxGeometry relative="1" as="geometry">
            <mxPoint x="1430" y="640" as="targetPoint" />
            <Array as="points">
              <mxPoint x="1200" y="640" />
            </Array>
          </mxGeometry>
        </mxCell>
        <mxCell id="o2AJ-vpnt4ydMoMnxQxD-94" value="dist target &amp;lt; range" style="rhombus;whiteSpace=wrap;html=1;" vertex="1" parent="1">
          <mxGeometry x="1140" y="500" width="120" height="120" as="geometry" />
        </mxCell>
        <mxCell id="o2AJ-vpnt4ydMoMnxQxD-98" style="edgeStyle=orthogonalEdgeStyle;rounded=0;orthogonalLoop=1;jettySize=auto;html=1;" edge="1" parent="1" source="o2AJ-vpnt4ydMoMnxQxD-97" target="o2AJ-vpnt4ydMoMnxQxD-99">
          <mxGeometry relative="1" as="geometry">
            <mxPoint x="1470" y="480" as="targetPoint" />
          </mxGeometry>
        </mxCell>
        <mxCell id="o2AJ-vpnt4ydMoMnxQxD-97" value="Hunter" style="whiteSpace=wrap;html=1;" vertex="1" parent="1">
          <mxGeometry x="1330" y="460" width="80" height="40" as="geometry" />
        </mxCell>
        <mxCell id="o2AJ-vpnt4ydMoMnxQxD-99" value="Hunt/Seek" style="rounded=1;whiteSpace=wrap;html=1;" vertex="1" parent="1">
          <mxGeometry x="1450" y="450" width="120" height="60" as="geometry" />
        </mxCell>
        <mxCell id="o2AJ-vpnt4ydMoMnxQxD-104" value="" style="edgeStyle=orthogonalEdgeStyle;rounded=0;orthogonalLoop=1;jettySize=auto;html=1;entryX=0;entryY=0.5;entryDx=0;entryDy=0;" edge="1" parent="1" source="o2AJ-vpnt4ydMoMnxQxD-102" target="o2AJ-vpnt4ydMoMnxQxD-105">
          <mxGeometry relative="1" as="geometry">
            <mxPoint x="1490" y="640" as="targetPoint" />
          </mxGeometry>
        </mxCell>
        <mxCell id="o2AJ-vpnt4ydMoMnxQxD-102" value="Prey" style="rounded=0;whiteSpace=wrap;html=1;" vertex="1" parent="1">
          <mxGeometry x="1330" y="620" width="80" height="40" as="geometry" />
        </mxCell>
        <mxCell id="o2AJ-vpnt4ydMoMnxQxD-105" value="&lt;div&gt;Flee&lt;br&gt;&lt;/div&gt;" style="rounded=1;whiteSpace=wrap;html=1;" vertex="1" parent="1">
          <mxGeometry x="1450" y="610" width="120" height="60" as="geometry" />
        </mxCell>
        <mxCell id="o2AJ-vpnt4ydMoMnxQxD-109" style="edgeStyle=orthogonalEdgeStyle;rounded=0;orthogonalLoop=1;jettySize=auto;html=1;" edge="1" parent="1" source="o2AJ-vpnt4ydMoMnxQxD-107" target="o2AJ-vpnt4ydMoMnxQxD-110">
          <mxGeometry relative="1" as="geometry">
            <mxPoint x="1360" y="710" as="targetPoint" />
            <Array as="points">
              <mxPoint x="1200" y="710" />
            </Array>
          </mxGeometry>
        </mxCell>
        <mxCell id="o2AJ-vpnt4ydMoMnxQxD-119" style="edgeStyle=orthogonalEdgeStyle;rounded=0;orthogonalLoop=1;jettySize=auto;html=1;" edge="1" parent="1" source="o2AJ-vpnt4ydMoMnxQxD-107" target="o2AJ-vpnt4ydMoMnxQxD-120">
          <mxGeometry relative="1" as="geometry">
            <mxPoint x="1310" y="830" as="targetPoint" />
            <Array as="points">
              <mxPoint x="1200" y="820" />
            </Array>
          </mxGeometry>
        </mxCell>
        <mxCell id="o2AJ-vpnt4ydMoMnxQxD-107" value="hunger full" style="rhombus;whiteSpace=wrap;html=1;" vertex="1" parent="1">
          <mxGeometry x="1155" y="720" width="90" height="90" as="geometry" />
        </mxCell>
        <mxCell id="o2AJ-vpnt4ydMoMnxQxD-116" style="edgeStyle=orthogonalEdgeStyle;rounded=0;orthogonalLoop=1;jettySize=auto;html=1;entryX=0;entryY=0.5;entryDx=0;entryDy=0;dashed=1;" edge="1" parent="1" source="o2AJ-vpnt4ydMoMnxQxD-110" target="o2AJ-vpnt4ydMoMnxQxD-114">
          <mxGeometry relative="1" as="geometry" />
        </mxCell>
        <mxCell id="o2AJ-vpnt4ydMoMnxQxD-110" value="Hunter" style="rounded=0;whiteSpace=wrap;html=1;" vertex="1" parent="1">
          <mxGeometry x="1330" y="690" width="80" height="40" as="geometry" />
        </mxCell>
        <mxCell id="o2AJ-vpnt4ydMoMnxQxD-114" value="" style="verticalLabelPosition=bottom;verticalAlign=top;html=1;shape=hexagon;perimeter=hexagonPerimeter2;arcSize=6;size=0.2;" vertex="1" parent="1">
          <mxGeometry x="1450" y="680" width="120" height="60" as="geometry" />
        </mxCell>
        <mxCell id="o2AJ-vpnt4ydMoMnxQxD-115" value="Spawn new hunter" style="text;html=1;align=center;verticalAlign=middle;resizable=0;points=[];autosize=1;strokeColor=none;fillColor=none;" vertex="1" parent="1">
          <mxGeometry x="1445" y="695" width="130" height="30" as="geometry" />
        </mxCell>
        <mxCell id="o2AJ-vpnt4ydMoMnxQxD-118" value="" style="edgeStyle=orthogonalEdgeStyle;rounded=0;orthogonalLoop=1;jettySize=auto;html=1;" edge="1" parent="1" source="o2AJ-vpnt4ydMoMnxQxD-2" target="o2AJ-vpnt4ydMoMnxQxD-117">
          <mxGeometry relative="1" as="geometry">
            <mxPoint x="1300" y="160" as="targetPoint" />
            <mxPoint x="980" y="60" as="sourcePoint" />
            <Array as="points">
              <mxPoint x="1300" y="60" />
            </Array>
          </mxGeometry>
        </mxCell>
        <mxCell id="o2AJ-vpnt4ydMoMnxQxD-117" value="defineret mængde" style="shape=parallelogram;html=1;strokeWidth=2;perimeter=parallelogramPerimeter;whiteSpace=wrap;rounded=1;arcSize=12;size=0.23;" vertex="1" parent="1">
          <mxGeometry x="1220" y="90" width="160" height="50" as="geometry" />
        </mxCell>
        <mxCell id="o2AJ-vpnt4ydMoMnxQxD-122" value="" style="edgeStyle=orthogonalEdgeStyle;rounded=0;orthogonalLoop=1;jettySize=auto;html=1;" edge="1" parent="1" source="o2AJ-vpnt4ydMoMnxQxD-120" target="o2AJ-vpnt4ydMoMnxQxD-121">
          <mxGeometry relative="1" as="geometry" />
        </mxCell>
        <mxCell id="o2AJ-vpnt4ydMoMnxQxD-120" value="" style="verticalLabelPosition=bottom;verticalAlign=top;html=1;shape=mxgraph.basic.rect;fillColor2=none;strokeWidth=1;size=20;indent=5;" vertex="1" parent="1">
          <mxGeometry x="1330" y="800" width="80" height="40" as="geometry" />
        </mxCell>
        <mxCell id="o2AJ-vpnt4ydMoMnxQxD-121" value="&lt;div&gt;&lt;br&gt;&lt;/div&gt;&lt;div&gt;Spawn new Prey&lt;br&gt;&lt;/div&gt;" style="rounded=1;whiteSpace=wrap;html=1;verticalAlign=top;strokeWidth=1;" vertex="1" parent="1">
          <mxGeometry x="1450" y="790" width="120" height="60" as="geometry" />
        </mxCell>
        <mxCell id="o2AJ-vpnt4ydMoMnxQxD-124" value="Prey" style="text;html=1;strokeColor=none;fillColor=none;align=center;verticalAlign=middle;whiteSpace=wrap;rounded=0;" vertex="1" parent="1">
          <mxGeometry x="1340" y="805" width="60" height="30" as="geometry" />
        </mxCell>
      </root>
    </mxGraphModel>
  </diagram>
</mxfile>
